HIERARCHY
ROOT Hips
{
 OFFSET 0.000000 0.000000 0.000000
 CHANNELS 6 Xposition Yposition Zposition Yrotation Xrotation Zrotation
 JOINT Chest
 {
  OFFSET 0.000000 10.354800 0.006500
  CHANNELS 3 Yrotation Xrotation Zrotation
  JOINT Chest2
  {
   OFFSET 0.000000 10.435800 -0.013200
   CHANNELS 3 Yrotation Xrotation Zrotation
   JOINT Chest3
   {
    OFFSET 0.000000 10.393700 0.000000
    CHANNELS 3 Yrotation Xrotation Zrotation
    JOINT Chest4
    {
     OFFSET 0.000000 10.383100 0.000000
     CHANNELS 3 Yrotation Xrotation Zrotation
     JOINT Neck
     {
      OFFSET 0.000000 15.694000 0.000000
      CHANNELS 3 Yrotation Xrotation Zrotation
      JOINT Head
      {
       OFFSET 0.000000 9.711000 -0.028000
       CHANNELS 3 Yrotation Xrotation Zrotation
       End Site
       {
        OFFSET 0.000000 18.578700 -0.014800
       }
      }
     }
     JOINT RightCollar
     {
      OFFSET -3.157200 10.367500 0.000000
      CHANNELS 3 Yrotation Xrotation Zrotation
      JOINT RightShoulder
      {
       OFFSET -14.482500 0.000000 0.000000
       CHANNELS 3 Yrotation Xrotation Zrotation
       JOINT RightElbow
       {
        OFFSET 0.000000 -31.707800 0.000000
        CHANNELS 3 Yrotation Xrotation Zrotation
        JOINT RightWrist
        {
         OFFSET 0.000000 -25.659300 0.000000
         CHANNELS 3 Yrotation Xrotation Zrotation
         End Site
         {
          OFFSET 0.000000 -18.994300 0.000000
         }
        }
       }
      }
     }
     JOINT LeftCollar
     {
      OFFSET 3.157200 10.367500 0.000000
      CHANNELS 3 Yrotation Xrotation Zrotation
      JOINT LeftShoulder
      {
       OFFSET 14.482500 0.000000 0.000000
       CHANNELS 3 Yrotation Xrotation Zrotation
       JOINT LeftElbow
       {
        OFFSET 0.000000 -31.707800 0.000000
        CHANNELS 3 Yrotation Xrotation Zrotation
        JOINT LeftWrist
        {
         OFFSET 0.000000 -25.659300 0.000000
         CHANNELS 3 Yrotation Xrotation Zrotation
         End Site
         {
          OFFSET 0.000000 -18.994300 0.000000
         }
        }
       }
      }
     }
    }
   }
  }
 }
 JOINT RightHip
 {
  OFFSET -8.365600 -0.032100 -0.003200
  CHANNELS 3 Yrotation Xrotation Zrotation
  JOINT RightKnee
  {
   OFFSET 0.000000 -43.980000 0.003100
   CHANNELS 3 Yrotation Xrotation Zrotation
   JOINT RightAnkle
   {
    OFFSET 0.000000 -42.882800 0.005200
    CHANNELS 3 Yrotation Xrotation Zrotation
    JOINT RightToe
    {
     OFFSET 0.000000 -4.915500 10.826300
     CHANNELS 3 Yrotation Xrotation Zrotation
     End Site
     {
      OFFSET 0.000000 -1.517500 6.175900
     }
    }
   }
  }
 }
 JOINT LeftHip
 {
  OFFSET 8.365600 -0.032100 -0.003200
  CHANNELS 3 Yrotation Xrotation Zrotation
  JOINT LeftKnee
  {
   OFFSET 0.000000 -43.980000 0.003100
   CHANNELS 3 Yrotation Xrotation Zrotation
   JOINT LeftAnkle
   {
    OFFSET 0.000000 -42.882800 0.005200
    CHANNELS 3 Yrotation Xrotation Zrotation
    JOINT LeftToe
    {
     OFFSET 0.000000 -4.915500 10.826300
     CHANNELS 3 Yrotation Xrotation Zrotation
     End Site
     {
      OFFSET 0.000000 -1.517500 6.175900
     }
    }
   }
  }
 }
}
MOTION
Frames: 5
Frame Time: 0.008333
-7.869507 126.825361 19.266009 178.787094 -25.533824 -1.688578 -2.985566 13.134143 4.586417 -0.298694 1.138435 0.429895 -0.502693 1.918828 0.714390 -2.735177 11.773078 4.125366 -1.668360 24.950828 4.413581 -2.857429 1.480214 5.156916 5.483429 2.431942 -8.341743 21.575485 -46.785354 -27.851261 -167.839712 -51.673789 -177.741721 -14.390492 1.866246 -14.983658 -3.753779 6.998992 2.065863 -24.658977 -34.562546 4.286201 -160.527997 -47.090671 154.191894 -3.837234 -15.743096 29.919421 8.254206 -49.315992 -8.270217 -157.218249 73.433672 -150.283728 -0.162036 -30.045002 2.333865 0.001960 -0.001673 0.000890 -14.810303 -51.223404 9.905856 143.582105 76.176782 138.488765 -1.297081 -23.697871 -2.569282 0.002363 0.002239 0.001073
-7.868866 126.825583 19.266181 178.788770 -25.538413 -1.690787 -2.984373 13.141752 4.592876 -0.299071 1.140227 0.431025 -0.499826 1.927761 0.722735 -2.716093 11.802278 4.154462 -1.687310 24.913439 4.406212 -2.868546 1.459724 5.171731 5.459636 2.401138 -8.361168 21.511371 -46.785685 -27.810576 -167.859677 -51.653940 -177.721990 -14.385153 1.865658 -14.932802 -3.770112 6.960420 2.042916 -24.641061 -34.533586 4.274514 -160.508140 -47.050385 154.182640 -3.835095 -15.689149 30.017908 8.249005 -49.309891 -8.272435 -157.221242 73.437944 -150.287907 -0.161580 -30.041404 2.334914 -0.000543 -0.002168 -0.000246 -14.811873 -51.221283 9.902404 143.587910 76.174857 138.496505 -1.243469 -23.692414 -2.592489 0.007838 0.001804 0.003559
-7.869064 126.825510 19.266882 178.776818 -25.539500 -1.682886 -2.965427 13.161145 4.614724 -0.305109 1.126472 0.414825 -0.497451 1.933223 0.727568 -2.713416 11.802359 4.156285 -1.675774 24.910744 4.428540 -2.856967 1.436743 5.218361 5.452241 2.393335 -8.365947 21.338021 -46.775909 -27.665424 -167.828931 -51.597767 -177.663779 -14.360117 1.860955 -14.902288 -3.772100 6.953698 2.041056 -24.629844 -34.520881 4.266550 -160.465222 -47.032100 154.152156 -3.827333 -15.635100 30.088340 8.264327 -49.309464 -8.281189 -157.224482 73.439013 -150.291264 -0.161982 -30.041322 2.334981 -0.001051 -0.002373 -0.000477 -14.807634 -51.222229 9.893974 143.565389 76.166970 138.469522 -1.212375 -23.689879 -2.606623 0.006326 0.001122 0.002872
-7.868517 126.825567 19.267385 178.774870 -25.541375 -1.684082 -2.954432 13.171894 4.628888 -0.308118 1.128857 0.417281 -0.501324 1.924978 0.718921 -2.708000 11.810530 4.165799 -1.660793 24.907520 4.448991 -2.865282 1.420945 5.223270 5.443312 2.398594 -8.345990 21.314172 -46.771627 -27.661527 -167.904435 -51.586861 -177.628522 -14.360883 1.858816 -14.834672 -3.777958 6.941865 2.032789 -24.614792 -34.500033 4.261361 -160.430947 -47.016869 154.125186 -3.812843 -15.588704 30.153779 8.265456 -49.307095 -8.279046 -157.215065 73.439531 -150.281685 -0.165148 -30.040093 2.340980 -0.000364 -0.002098 -0.000165 -14.809992 -51.220532 9.895282 143.553470 76.162394 138.456930 -1.210253 -23.690968 -2.609654 0.006267 0.001579 0.002845
-7.868824 126.825539 19.268085 178.773391 -25.541836 -1.681649 -2.948147 13.176638 4.633027 -0.305214 1.134394 0.424372 -0.500427 1.927505 0.720956 -2.699237 11.817336 4.176412 -1.673737 24.889860 4.444062 -2.857496 1.408174 5.245217 5.436116 2.397421 -8.337425 21.315278 -46.773544 -27.691672 -167.960769 -51.585670 -177.610894 -14.367630 1.860569 -14.793720 -3.797786 6.925059 2.024739 -24.569902 -34.423539 4.243405 -160.467446 -46.944566 154.156122 -3.801808 -15.536118 30.221378 8.275489 -49.308323 -8.288216 -157.221413 73.437851 -150.285563 -0.168307 -30.039263 2.341505 -0.000053 -0.003953 -0.000024 -14.806986 -51.220851 9.893051 143.551215 76.160941 138.456622 -1.260901 -23.695370 -2.591163 0.002160 0.001529 0.000981
